<?xml version="1.0" encoding="utf-8"?>
<!-- Generator: Adobe Illustrator 19.2.0, SVG Export Plug-In . SVG Version: 6.00 Build 0)  -->
<!DOCTYPE svg PUBLIC "-//W3C//DTD SVG 1.1//EN" "http://www.w3.org/Graphics/SVG/1.1/DTD/svg11.dtd">
<svg version="1.1" id="Layer_1" xmlns="http://www.w3.org/2000/svg" xmlns:xlink="http://www.w3.org/1999/xlink" x="0px" y="0px"
	 viewBox="0 0 500 533.3" enable-background="new 0 0 500 533.3" xml:space="preserve">
<g id="Change1">
	<g>
		<g>
			<g>
				<path fill="#FFFFFF" d="M366.9,484.2L366.9,484.2l0.1,0.1l0,0c1.3,1,3,3.4,4,6.6s1.2,7.2,0.1,11.4c-1.8,6.6-1.5,11.4-0.9,14.7
					s1.7,5,1.8,5.1c0,0-1.7,0.1-3.9-0.6c-2.1-0.7-4.6-2.1-6.5-5.4l0,0c-0.5-0.7-1.3-2.4-1.8-5.3c-0.5-2.9-0.8-7.1-0.2-13
					c0.4-3.3,0.2-6.1-0.5-8.3c-0.7-2.2-1.8-3.9-3.2-5.2c-0.7-0.6-1.4-1.1-2.2-1.5c-0.4-0.4-0.7-0.7-1-0.9c-0.6-0.4-1.1-0.7-1.4-0.7
					c0,0,0.3-0.1,0.8-0.3c0.3-0.1,0.6-0.2,0.9-0.2l0.6-0.1c0.1,0,0.2,0,0.3,0h0.7C358.7,480.4,363.3,481.5,366.9,484.2z"/>
			</g>
			<g>
				<path fill="#FFFFFF" d="M390.1,490.4L390.1,490.4l0.1,0.1L390.1,490.4c1.2,1.2,2.6,3.8,3.1,7.2c0.5,3.3,0.2,7.3-1.6,11.3
					c-2.7,6.2-3.2,11.1-3,14.4c0.1,3.3,1,5.2,1,5.3c0,0-1.7-0.2-3.7-1.2s-4.2-2.8-5.6-6.3l0,0c-0.3-0.8-0.9-2.5-1-5.5
					c-0.1-2.9,0.2-7.1,1.7-12.8c0.9-3.2,1.1-6,0.8-8.3c-0.3-2.3-1.2-4.2-2.4-5.6c-0.6-0.7-1.3-1.3-1.9-1.8c-0.3-0.4-0.6-0.8-0.9-1
					c-0.5-0.5-1-0.8-1.3-0.9c0,0,0.3-0.1,0.9-0.2c0.3,0,0.6-0.1,1-0.1h0.6c0.1,0,0.2,0,0.3,0l0.7,0.1
					C382.5,485.5,386.9,487.2,390.1,490.4z"/>
			</g>
			<g>
				<path fill="#FFFFFF" d="M337.8,482.4c1.4-1.2,2.4-2.9,3.5-4.5c0.9,0.5,1.9,1.1,2.8,2h0.1l0,0l0,0c0.7,0.7,1.8,2.7,2.9,5.5
					c1,2.8,2.1,6.5,2.4,10.8c0.2,3.4,1,6.2,2.1,8.5c0.1,0.3,0.3,0.6,0.4,0.8l0.2,0.4l0.1,0.2l0.1,0.2l0.5,1.4
					c0.3,0.9,0.6,1.7,0.9,2.3c0.6,1.4,1.1,2.4,1.6,3c0.4,0.7,0.8,1,0.8,1s-1.4,0.7-2.9,0.9c-0.4,0.1-0.7,0.1-1,0.1
					c-0.2,0-0.3,0-0.4-0.1c0,0,0,0-0.1,0h-0.4c-0.3,0-0.5-0.1-0.8-0.1c-2.2-0.4-4.5-1.3-6.7-2.7l0,0c-1-0.6-3-2.2-4.5-5.2
					s-2.4-7.3-1.6-13.1C338.5,488.6,338.3,485,337.8,482.4z"/>
			</g>
			<g>
				<path fill="#FFFFFF" d="M316.3,499.6c4.4-2.1,7.9-5.4,11.8-8.3c-1.2,6.2,0.1,10.9,2,14c1.9,3.3,4.4,4.8,4.5,4.9
					c0,0-2.2,0.5-5.4,0c-3.2-0.5-7.3-2.2-10.5-6.1l0,0C318.1,503.5,317,502,316.3,499.6z"/>
			</g>
			<g>
				<path fill="#FFFFFF" d="M303,460.1c0-0.1,0-0.1,0-0.2c-0.2-2.9-1.3-4.4-1.9-5c0,0,1.5,0.4,3.4,1.5c1.3,0.7,2.7,1.8,3.9,3.3
					C306.6,459.5,304.8,459.7,303,460.1z"/>
			</g>
			<g>
				<path fill="#FFFFFF" d="M309.5,498.8c0.6,1,1.2,1.6,1.2,1.6s-2.2,0-5-1c-2.4-0.9-5.2-2.7-7.4-5.8
					C301.6,496.2,305.6,498,309.5,498.8z"/>
			</g>
			<g>
				<path fill="#FFFFFF" d="M294.6,455.8c-0.3,2.8-1.1,6.3-2.9,9.8c-5.1-1-10.1,1.3-14.3,4.7c0.3-3.1,1.6-7.1,4.8-11.7
					c7.5-11.1,4.5-16.5,3.4-17.8c0,0,1.5,0.5,3.3,1.8s4,3.3,5.3,6.5v0.1l0,0l0,0C294.6,450.3,294.9,452.7,294.6,455.8z"/>
			</g>
			<g>
				<path fill="#FFFFFF" d="M278.2,433.8v0.1l0,0l0,0c0.3,0.7,0.6,1.7,0.8,2.9c0.1,0.6,0.1,1.3,0.1,2.1c0,0.7-0.1,1.4-0.3,2.2
					c-0.5,3.1-1.7,6.8-4.2,10.4c-3.8,5.7-4.6,10.7-4.4,14.3c0.2,3.6,1.4,5.9,1.5,6c0,0-2-0.4-4.4-1.9s-5.1-4.2-6.5-8.7l0,0
					c-0.3-0.9-0.9-3.2-0.2-6.1c0.6-3,2-7,5.2-12c3.6-5.6,4.3-10.1,3.6-13.2c-0.6-3.2-2.5-5-3.3-5.6c0,0,2,0.4,4.5,1.9
					C273.3,427.6,276.4,430.1,278.2,433.8z"/>
			</g>
			<g>
				<path fill="#FFFFFF" d="M255.3,418.4L255.3,418.4l0.1,0.1l0,0c1.2,1.1,2.8,3.7,3.5,7s0.5,7.3-1.1,11.4c-1.3,3.1-2,5.9-2.4,8.3
					s-0.5,4.4-0.5,6c0.1,3.3,0.9,5.1,0.9,5.2c0,0-1.7-0.1-3.6-1c-1-0.4-2-1.1-2.9-2s-1.8-2.2-2.5-3.9l0,0c-0.3-0.7-0.9-2.4-1.1-5.3
					c-0.2-2.9-0.2-7.1,1.1-12.9c0.7-3.3,0.8-6,0.4-8.3c-0.4-2.3-1.3-4.1-2.3-5.4c-2.1-2.7-5-3.7-6.2-3.9c0,0,2.3-0.5,5.6-0.1
					C247.6,414,251.9,415.3,255.3,418.4z"/>
			</g>
			<g>
				<path fill="#FFFFFF" d="M224.4,414.1h0.1l0,0l0,0c1.8,0.2,4.9,1.5,7.4,4.1c2.5,2.5,4.4,6.2,4.7,10.6c0.3,3.4,0.8,6.2,1.3,8.5
					s1.1,4.2,1.7,5.6c1,2.9,2.1,4.2,2.1,4.3c0,0-1.5,0.5-3.1,0.5c-0.8,0-1.7-0.1-2.6-0.5c-0.9-0.4-1.8-1.1-2.9-2.2l0,0
					c-0.5-0.5-1.5-1.7-2.9-4.1c-0.7-1.2-1.6-2.7-2.6-4.6s-2.1-4.1-3.3-6.8c-1.3-3.1-2.9-5.4-4.6-6.9c-1.7-1.6-3.6-2.4-5.4-2.8
					c-1.8-0.4-3.5-0.2-4.8,0.1c-1.4,0.3-2.4,0.8-3,1.1c0,0,1.6-2,4.8-3.9c1.6-1,3.6-1.9,5.9-2.5
					C219.3,414.1,221.9,413.8,224.4,414.1z"/>
			</g>
			<g>
				<path fill="#FFFFFF" d="M195.4,431.6l0.1-0.1l0,0l0,0c1.5-1.2,4.8-2.5,8.4-2.4c1.8,0,3.7,0.4,5.5,1.2c1.8,0.8,3.5,1.9,5.1,3.5
					c2.4,2.4,4.6,4.2,6.4,5.7c1.8,1.5,3.3,2.7,4.4,3.6c1.1,0.9,2,1.5,2.6,1.9s0.9,0.6,1,0.6c0,0-0.6,1.2-1.5,2
					c-0.4,0.4-1,0.8-1.7,0.9s-1.7,0.1-3-0.2l0,0c-0.6-0.1-2-0.5-4.6-1.3l-5-1.6c-2-0.7-4.4-1.5-7.1-2.6c-3.1-1.3-5.8-1.8-8.2-1.6
					c-2.4,0.2-4.3,1-5.9,2.1c-1.5,1.1-2.6,2.5-3.3,3.8s-1.1,2.4-1.2,3.1c0,0-0.4-2.6,0.5-6.5c0.4-1.9,1.2-4.1,2.4-6.3
					C191.6,435.4,193.3,433.3,195.4,431.6z"/>
			</g>
			<g>
				<path fill="#FFFFFF" d="M197.3,470.5c-1.4,1.9-2,4-2.1,5.8c0,0.3,0,0.6,0,0.8c-0.8,0.1-1.7,0.2-2.5,0.3c-0.4,0.1-0.7,0.2-1,0.3
					c-0.7-1.1-1.4-2.4-1.9-3.9c-0.9-2.3-1.4-5-1.3-7.7v-0.2l0,0l0,0c0.1-2,1.1-5.4,3.6-8.2c1.2-1.4,2.8-2.6,4.6-3.5s3.8-1.4,6-1.5
					c3.4-0.2,6.2-0.6,8.6-0.8c2.3-0.3,4.2-0.5,5.6-0.6c1.4-0.1,2.4-0.2,3.1-0.3c0.7-0.1,1-0.1,1-0.2c0,0,0.5,1.2,0.6,2.2
					c0,0.5,0,1-0.4,1.5s-1,0.9-2.1,1.6c-0.4,0.3-1.7,1-4,2.4c-1.2,0.7-2.7,1.6-4.4,2.7c-1.8,1.1-3.9,2.4-6.5,3.8
					C200.8,466.8,198.7,468.6,197.3,470.5z"/>
			</g>
			<g>
				<path fill="#FFFFFF" d="M239.8,489.6c0,0.1,0,0.1,0,0.2c-0.1,6.7,1.8,10.8,3.8,13.1c2.1,2.4,4.4,3,5.3,3.1c0,0-1.8,0.6-4.5,0.7
					s-6.5-0.4-10.1-2.5l-0.1-0.1l0,0l0,0c-1.3-0.8-3.3-2.8-4.7-5.9c-0.2-0.4-0.3-0.7-0.5-1.1C232.7,494.7,236,491.8,239.8,489.6z"/>
			</g>
			<g>
				<path fill="#FFFFFF" d="M253.2,474.2c0.1,0.1,0.2,0.1,0.3,0.2l0,0c0.7,0.5,2.3,1.7,4,4.3c1.7,2.5,3.6,6.4,4.6,12.2
					c1.2,6.6,3.6,10.3,6,12.2c2.4,2,4.7,2.2,5.6,2.2c0,0-1.6,0.9-4.2,1.4s-6.2,0.7-9.8-0.7h-0.1l0,0l0,0c-1.3-0.5-3.5-2.1-5.5-4.7
					s-3.7-6.2-4.2-10.5c-0.5-3.5-1.3-6.4-2.3-8.7C250.3,480.1,251.8,477.2,253.2,474.2z"/>
			</g>
			<g>
				<path fill="#FFFFFF" d="M284.5,503.7h-0.1l0,0l0,0c-1.4-0.3-3.8-1.6-6.1-3.8c-2.3-2.3-4.6-5.5-5.8-9.7c-2-6.5-5-10.4-7.5-12.8
					s-4.5-3.1-4.6-3.2c0,0,1.5-1.1,3.7-1.7c2.3-0.6,5.4-0.8,9.2,0.9l0,0c0.8,0.3,2.6,1.3,4.7,3.6c2.1,2.2,4.5,5.8,6.5,11.3
					c2.2,6.3,5.2,9.6,7.9,11.1c2.7,1.5,5.1,1.4,6.1,1.2c0,0-1.5,1.2-4,2.1C291.9,503.8,288.4,504.5,284.5,503.7z"/>
			</g>
			<g>
				<path fill="#FFFFFF" d="M309.2,497h-0.1l0,0l0,0c-1.5,0-4.2-0.7-7-2.5s-5.6-4.6-7.5-8.5c-3.1-6.1-6.6-9.4-9.4-11.4
					c-2.8-1.9-4.8-2.4-5-2.4c0,0,1.3-1.3,3.4-2.2c2.1-1,5.1-1.6,8.9-0.5l0,0c0.8,0.2,2.7,0.9,5.1,2.7c2.4,1.9,5.4,4.8,8.5,9.8
					c3.5,5.7,7.3,8.2,10.5,8.9c3.2,0.7,5.8-0.3,6.8-0.9c0,0-1.3,1.7-3.9,3.5C317,495.2,313.3,496.9,309.2,497z"/>
			</g>
			<g>
				<path fill="#FFFFFF" d="M334.1,480.5l-0.1,0.1l0,0l0,0c-0.5,0.3-1,0.6-1.6,0.8c-0.6,0.3-1.3,0.5-2,0.6c-1.5,0.3-3.2,0.5-4.9,0.3
					c-3.5-0.4-7.2-2.1-10.2-5.2c-2.4-2.5-4.6-4.2-6.6-5.6s-3.7-2.3-5.2-3c-2.9-1.3-4.9-1.5-5-1.4c0,0,0.8-1.5,2.4-2.8
					c0.8-0.6,1.7-1.3,2.8-1.6c1.1-0.4,2.4-0.5,4-0.4l0,0c0.7,0,2.2,0.4,4.8,1.3c0.7,0.2,1.4,0.5,2.2,0.9l2.6,1.2
					c1.9,0.8,4.3,1.8,7,3c3.1,1.4,5.9,1.9,8.3,1.6s4.5-1.2,6.1-2.6c1.6-1.3,2.6-2.9,3.3-4.4c0.6-1.5,0.9-2.8,0.9-3.5
					c0,0,0.1,0.7,0.2,2s0,3.1-0.4,5.2c-0.4,2.2-1.3,4.7-2.7,7.1C338.7,476.3,336.6,478.7,334.1,480.5z"/>
			</g>
			<g>
				<path fill="#FFFFFF" d="M339.5,444.5c0,0.7-0.1,1.5-0.2,2.4c-0.3,1.7-0.9,3.5-1.9,5.1c-1,1.7-2.2,3.1-3.9,4.2
					c0,0.1-0.1,0.1-0.1,0.1c-1.6,1.1-3.6,1.9-5.7,2.2c-3.4,0.5-6.2,1-8.5,1.3c-2.4,0.3-4.2,0.4-5.5,0.3c-1.4-0.1-2.2-0.2-2.8-0.3
					c-0.6-0.2-0.8-0.2-0.8-0.2c0-0.1-0.7-0.9-1-1.4c-0.1-0.2-0.2-0.4,0.1-0.5c0.2-0.1,0.8-0.3,1.9-0.8c0.4-0.3,1.6-0.7,3.7-2.3
					c0.5-0.4,1.1-0.9,1.8-1.4c0.6-0.5,1.3-1.2,2.1-2c1.5-1.4,3.4-3.1,5.7-4.9c2-1.5,3.4-3.1,4.5-4.6c0.4-0.5,0.8-1.1,1-1.6
					c0.5-1,0.9-2,1.2-3c0.2-0.9,0.4-1.9,0.4-2.7c0.1-3.4-1.3-5.6-1.9-6.5c0.4,0.2,2,1.1,4,3.2c1.1,1.1,2.3,2.6,3.4,4.5
					c1,1.9,1.9,4.3,2.4,6.9v0.2C339.5,443.2,339.5,443.8,339.5,444.5z"/>
			</g>
			<g>
				<path fill="#FFFFFF" d="M321,419.8L321,419.8l0.1,0.1l0,0c0.8,1.4,1.5,4.2,1.2,7.5s-1.5,7.1-4.1,10.6c-2,2.7-3.4,5.3-4.5,7.4
					c-1,2.2-1.7,4-2.2,5.5c-1,2.9-1.4,4.2-1.4,4.3c0,0-1.2-0.2-2.5-1.1c-0.6-0.5-1.3-1.2-1.8-2.2c-0.6-1-1-2.4-1.4-4.4l0,0
					c-0.2-0.8-0.4-2.7,0.2-5.6s1.8-6.9,4.6-12.1c1.6-2.9,2.5-5.5,2.7-7.8c0.3-2.3-0.1-4.3-0.8-5.9c-1.4-3.3-4.3-5.1-5.6-5.6
					c0,0,2.7,0.2,6,1.6C314.9,413.3,318.7,416,321,419.8z"/>
			</g>
			<g>
				<path fill="#FFFFFF" d="M288.7,408.2h0.2l0,0l0,0c1,0.1,2.5,0.6,3.9,1.4c1.5,0.8,3,2,4.2,3.5s2.2,3.2,2.7,5.2
					c0.5,1.9,0.6,4,0.2,6.2c-0.5,3.4-0.7,6.2-0.9,8.6c-0.2,2.4-0.2,4.2-0.2,5.8c0.1,3,0.7,4.6,0.8,4.7c0,0-1.6,0-3.1-0.4
					c-0.8-0.2-1.5-0.5-2-1s-0.8-1.2-1.1-2.4l0,0c-0.2-0.5-0.3-1.8-1.1-4.3c-0.4-1.3-1-2.9-1.8-4.8s-1.9-4.2-3-7
					c-1.2-3.1-2.8-5.4-4.6-7c-1.8-1.6-3.7-2.4-5.5-2.8s-3.4-0.3-4.6-0.1c-1.3,0.2-2.2,0.6-2.7,0.9c0,0,1.3-1.7,4.4-3.5
					c1.5-0.9,3.5-1.9,5.9-2.5C282.9,408.1,285.8,407.8,288.7,408.2z"/>
			</g>
			<g>
				<path fill="#FFFFFF" d="M289.8,440.9c-3.9-2.1-7.2-4.3-9.8-7.9c-2.1-2.9-4.3-5.8-7.5-7.5c-4-2.1-8.3-2.9-12.8-3.3
					c0.2-0.1,0.5-0.2,0.7-0.3h0.1l0,0l0,0c1.4-0.4,4.2-0.6,7.4,0.2c3.3,0.8,6.9,2.6,9.8,5.8c2.3,2.5,4.5,4.4,6.4,5.9
					s3.4,2.6,4.5,3.5c2.2,1.8,2.8,2.7,2.9,2.7c0,0-0.1,0.3-0.2,0.6c-0.1,0.4-0.3,0.8-0.6,1.2C290.5,441.4,290.2,441.1,289.8,440.9z"
					/>
			</g>
			<g>
				<path fill="#FFFFFF" d="M220.6,458c1.4-1.7,3.7-3.7,7-4.8h0.1l0,0l0,0c1.2-0.4,3.7-0.4,6.7,0.2c3.1,0.6,6.8,1.9,10.3,4.4
					c5.5,3.9,10.5,4.9,14.1,4.9c0.1,0,0.3,0,0.4,0c0.5,1.7,1.1,3.3,2.1,4.8c-1.6,1.7-4,3.4-7.3,4.3l0,0c-1.9,0.6-8.9,1.8-18-5.7
					c-10.4-8.4-16.1-5.8-17.4-4.9C218.4,461.1,219.1,459.7,220.6,458z"/>
			</g>
			<g>
				<path fill="#FFFFFF" d="M211.5,467.1L211.5,467.1h0.1l0,0c1.2-0.3,3.6-0.2,6.6,0.7c3,0.8,6.6,2.4,10,5.1
					c5.3,4.3,10.2,5.5,13.9,5.6c3.6,0.1,5.9-0.9,6.1-0.9c0,0-0.5,1.9-2.3,4.2c-1.7,2.2-4.7,4.7-9.2,5.7l0,0c-2,0.5-9.1,1.3-17.7-6.9
					c-9.8-9.2-15.5-7.1-16.9-6.3c0,0,0.8-1.4,2.3-3C205.9,469.7,208.2,467.9,211.5,467.1z"/>
			</g>
			<g>
				<path fill="#FFFFFF" d="M194.7,479.5L194.7,479.5h0.1l0,0c1.2-0.1,3.6,0.2,6.5,1.2c2.9,1.1,6.4,2.9,9.5,5.9
					c4.9,4.7,9.8,6.3,13.4,6.6c3.6,0.4,6-0.5,6.2-0.5c0,0-0.7,1.9-2.6,4c-1.9,2.1-5.1,4.4-9.8,5l0,0c-1,0.2-3.3,0.3-6.4-0.7
					c-3-1-6.8-3.2-10.7-7.6c-2.2-2.5-4.3-4.3-6.1-5.5c-0.9-0.6-1.8-1.1-2.6-1.5c-0.4-0.2-0.7-0.4-1.1-0.6c-0.3-0.2-0.6-0.3-0.9-0.5
					c-2.3-1.1-3.6-1.1-4.1-0.9c0,0,0.6-1,1.6-2c0.3-0.2,0.6-0.5,0.9-0.7l0.3-0.2l0.4-0.3c0.3-0.2,0.6-0.3,0.9-0.5
					C191.6,480.3,193,479.8,194.7,479.5z"/>
			</g>
			<g>
				<path fill="#FFFFFF" d="M180.2,486.6L180.2,486.6L180.2,486.6L180.2,486.6c1,0.4,2.7,1.6,4.8,3.6s4.8,4.7,7.3,8.2
					c1.9,2.8,4.1,4.8,6.3,6.1c1.1,0.7,2.2,1.1,3.4,1.5c1.1,0.3,2.2,0.5,3.2,0.6c3.6,0.7,6.1,0,6.2,0c0,0-0.9,1.9-3,3.8l-0.4,0.4
					l-0.2,0.2l-0.3,0.2c-0.4,0.3-0.8,0.6-1.3,0.9c-0.9,0.6-1.9,1.1-3.1,1.6c-2.3,0.9-4.9,1.5-7.8,1.4l0,0c-1.2,0-4-0.4-6.9-2.3
					c-2.8-1.9-5.6-5.3-7.5-11c-2.1-6.4-4.3-9.9-6.3-11.8s-3.8-2.3-4.5-2.3c0,0,1.4-0.8,3.3-1.3c1-0.2,2-0.4,3.2-0.5
					C177.7,486,178.9,486.2,180.2,486.6z"/>
			</g>
			<g>
				<path fill="#FFFFFF" d="M160.6,488.4h0.1l0,0l0,0c1.2,0.5,3.3,2,5.2,4.5c2,2.5,3.8,5.8,4.9,10c1.7,6.6,4.9,10.6,8.1,12.7
					c3.2,2.1,6.2,2.4,6.4,2.4c0,0-1.9,1.5-5,2.4s-7.4,1.2-11.6-0.8l0,0c-0.9-0.4-2.9-1.5-4.8-4c-2-2.4-3.9-6.2-5.2-12
					c-1.4-6.6-3.8-10.2-6.3-12.1c-2.4-1.9-4.8-2.1-5.8-2.1c0,0,1.7-0.9,4.3-1.5C153.7,487.3,157.2,487.1,160.6,488.4z"/>
			</g>
			<g>
				<path fill="#FFFFFF" d="M138.3,491.7L138.3,491.7l0.1,0.1l0,0c1.2,0.6,3,2.3,4.7,5s3.2,6.2,3.8,10.5c1,6.7,3.8,11,6.8,13.5
					s5.9,3,6.1,3.1c0,0-2,1.3-5.3,1.8c-3.2,0.6-7.5,0.4-11.4-2l0,0c-0.9-0.5-2.7-1.8-4.4-4.5c-1.7-2.6-3.3-6.6-3.9-12.5
					c-0.7-6.7-2.7-10.5-4.9-12.7s-4.6-2.6-5.5-2.7c0,0,1.7-0.7,4.4-1.1C131.5,489.9,135,490.1,138.3,491.7z"/>
			</g>
		</g>
		<g>
			<path fill="#FFFFFF" d="M89.4,496.4c0,0,10,0.6,10.2-2.5s-3.5-3.1-10.2-2.7c0,0,20.1-6.1,27.8,4.1c0,0.1,0.1,0.1,0.2,0.2
				c0,0,0,0.1,0.1,0.1c0,0,0,0,0,0.1c0.8,1,1.6,2.4,2.2,4.1c1.2,2.9,2.1,6.7,1.9,11c-0.3,6.8,1.8,11.5,4.3,14.4
				c2.5,2.9,5.3,4,5.5,4.1c0,0-0.4,0.2-1,0.3c0,0-13.1,5.6-28.9-1c0,0,11.3,0.3,13.4-0.9s-7.9-1.6-13.2-1.3c0,0,6-1,7.7-2.8
				c1.8-1.9,1.1-4.1-15.4-0.8c0,0,8.2-3.7,13.2-4.2c-1.8-0.2-4.2-0.9-6-2.6c0,0,6.3,1,7.5-3.7c0,0-1.8,1.4-7.6,0.3
				c0,0,4.8-1.9,6.1-4c0,0,3.1-3.1-10.1-3.1c0,0,7.3-0.9,7.2-2.8c-0.2-3.1-1.7,2.5-9.3-1.3c0,0,8.4,1,7.3-3.8
				C101.5,494.6,102.2,500.9,89.4,496.4z"/>
		</g>
		<g>
			<path fill="#FFFFFF" d="M377.7,484.9c0,0,14.1-1.7,27.4,9.1c0,0-10.8-3.5-13.1-2.9c-2.4,0.6,7.1,3.8,12.3,5c0,0-6-0.7-8.2,0.6
				c-2.3,1.3-2.2,3.6,14.5,5.1c0,0-12.5,1.8-16.1-0.4c0,0,5.2,1.1,7.3,5c0,0-5.8-2.7-8.2,1.5c0,0,2.1-0.9,7.4,1.8c0,0-5.1,0.5-7,2.2
				c0,0-3.9,2.2,8.9,5.9c0,0-7.3-1.1-7.7,0.7c-0.7,3,2.4-2,8.6,3.8c0,0-7.8-3.3-8,1.6c-0.2,2.9,1-3.3,12,4.6c0,0-9.4-3.4-10.5-0.4
				c-1.1,2.9,2.5,4,9,5.4c0,0-21.4,0.3-25.6-12c-0.6-1.9,2.5,0.4,1.4-6.8c-1.7-10.8,1.9-8.5,2.1-12.9s3.4-11.3-0.5-13.3
				C379.6,486.1,377.7,484.9,377.7,484.9z"/>
		</g>
	</g>
	<g>
		<g>
			<path fill="#FFFFFF" d="M466.8,283.8v-0.1l0,0l0,0c0.7-1.6,2.6-4.3,5.3-6.8c2.6-2.5,6.1-5,10.2-5.9c6.4-1.5,10.5-5.9,13-10
				s3.2-8,3.3-8.2c0,0,1,2.8,1.3,7.3s0,10.7-2.7,17.1l0,0c-0.6,1.4-2,4.4-4.7,7.2c-2.7,2.8-6.8,5.2-12.4,5.7
				c-6.3,0.5-10.3,3-12.9,5.7c-2.5,2.6-3.6,5.4-4,6.6c0,0-0.1-2.3,0.3-5.8C463.9,292.9,464.8,288.4,466.8,283.8z"/>
		</g>
		<g>
			<path fill="#FFFFFF" d="M467.8,254.7v-0.1l0,0l0,0c0.6-1.7,2.3-4.5,4.8-7.2s5.8-5.4,9.8-6.6c6.2-1.9,10.1-6.6,12.3-10.9
				c2.2-4.3,2.7-8.2,2.7-8.4c0,0,1.2,2.7,1.8,7.2c0.6,4.5,0.7,10.7-1.6,17.3l0,0c-0.5,1.4-1.7,4.5-4.3,7.5c-2.6,2.9-6.4,5.6-12,6.5
				c-6.3,0.9-10.1,3.7-12.5,6.5s-3.3,5.7-3.5,6.9c0,0-0.3-2.3-0.1-5.8C465.5,264,466.1,259.4,467.8,254.7z"/>
		</g>
		<g>
			<path fill="#FFFFFF" d="M458.3,316.3l0.1-0.1l0,0l0,0c1-1.5,3.2-3.8,6.2-6c3-2.1,6.8-4,11-4.3c6.5-0.5,11.3-4.2,14.4-8
				c3.1-3.7,4.4-7.4,4.5-7.6c0,0,0.6,2.9,0.2,7.4s-1.6,10.6-5.3,16.5l0,0c-0.8,1.3-2.6,4.1-5.8,6.4c-3.1,2.3-7.5,4.1-13.1,3.7
				c-6.3-0.4-10.6,1.5-13.6,3.7c-2.9,2.2-4.4,4.8-4.9,6c0,0,0.3-2.3,1.2-5.7C454.1,324.9,455.7,320.6,458.3,316.3z"/>
		</g>
		<g>
			<path fill="#FFFFFF" d="M447.7,344.7l0.1-0.1l0,0l0,0c1.2-1.3,3.8-3.3,7.1-4.9c3.3-1.6,7.3-2.9,11.5-2.6
				c6.5,0.5,11.8-2.5,15.4-5.7s5.5-6.7,5.6-6.9c0,0,0.1,3-0.9,7.4s-3.2,10.2-7.7,15.5l0,0c-1,1.2-3.2,3.6-6.7,5.4
				c-3.4,1.8-8,2.9-13.5,1.7c-6.2-1.4-10.7-0.2-14,1.6c-3.2,1.8-5.1,4.1-5.8,5.2c0,0,0.6-2.3,2-5.4
				C442.2,352.5,444.4,348.5,447.7,344.7z"/>
		</g>
		<g>
			<path fill="#FFFFFF" d="M431.1,373.4L431.1,373.4l0.1-0.1l0,0c1.4-1.1,4.2-2.7,7.8-3.8c3.5-1.1,7.7-1.8,11.8-0.8
				c6.4,1.5,12-0.6,16.1-3.3c4-2.6,6.4-5.8,6.6-5.9c0,0-0.3,3-2,7.1c-1.7,4.2-4.7,9.6-10,14.2l0,0c-1.1,1-3.7,3.1-7.4,4.3
				c-3.7,1.3-8.4,1.7-13.6-0.4c-5.9-2.3-10.6-1.8-14-0.6c-3.4,1.3-5.7,3.3-6.5,4.2c0,0,0.9-2.2,2.8-5.1
				C424.5,380.4,427.3,376.6,431.1,373.4z"/>
		</g>
		<g>
			<path fill="#FFFFFF" d="M410.5,399.3l0.1-0.1l0,0l0,0c1.5-0.9,4.6-2,8.2-2.6s7.9-0.6,11.8,0.9c6.1,2.4,12,1.2,16.4-0.8
				s7.2-4.7,7.4-4.9c0,0-0.8,2.9-3.1,6.7c-2.3,3.9-6.1,8.8-12,12.5l0,0c-1.3,0.8-4.2,2.5-8,3.2s-8.5,0.4-13.4-2.4
				c-5.5-3.2-10.2-3.4-13.8-2.7c-3.6,0.7-6.1,2.4-7.1,3.2c0,0,1.3-2,3.5-4.6C402.9,405.2,406.2,401.9,410.5,399.3z"/>
		</g>
		<g>
			<path fill="#FFFFFF" d="M386.2,421.9l0.1-0.1l0,0l0,0c1.7-0.7,4.8-1.3,8.5-1.4c3.7,0,7.9,0.6,11.5,2.7c5.6,3.3,11.7,3,16.3,1.6
				c4.7-1.3,7.9-3.6,8-3.7c0,0-1.2,2.7-4,6.2s-7.4,7.8-13.8,10.6l0,0c-1.4,0.6-4.5,1.8-8.4,1.9s-8.5-0.9-12.9-4.4
				c-5-4-9.6-4.9-13.2-4.7c-3.7,0.2-6.4,1.5-7.5,2.1c0,0,1.5-1.8,4.2-4C377.8,426.5,381.5,423.8,386.2,421.9z"/>
		</g>
		<g>
			<path fill="#FFFFFF" d="M358.7,440.5h0.1l0,0l0,0c1.7-0.4,5-0.6,8.6,0c3.7,0.5,7.7,1.8,10.9,4.4c5.1,4.1,11.1,4.7,15.9,4.1
				s8.3-2.4,8.5-2.5c0,0-1.6,2.5-4.9,5.5s-8.5,6.6-15.2,8.4l0,0c-1.4,0.4-4.7,1.1-8.6,0.7c-3.9-0.5-8.3-2.1-12.1-6.3
				c-4.3-4.6-8.7-6.3-12.4-6.6c-3.6-0.4-6.5,0.5-7.7,1c0,0,1.8-1.5,4.8-3.3C349.7,443.8,353.9,441.7,358.7,440.5z"/>
		</g>
		<g>
			<path fill="#FFFFFF" d="M371.5,467.2c0,0-1.9,2.2-5.7,4.7c-3.7,2.5-9.4,5.2-16.3,6c-1.4,0.2-4.4,0.4-7.8-0.5
				c-0.2-0.1-0.5-0.1-0.7-0.2c-1-0.3-2-0.7-3.1-1.2c0.1-3.7,0-7.3-0.4-10.9c-0.1-1.3-0.4-2.5-0.8-3.6c0.4-0.6,0.8-1.2,1.1-1.8
				c0.6-1.1,1-2.2,1.3-3.3c3,1.1,6.1,2.8,8.5,5.5c0.2,0.2,0.3,0.4,0.5,0.5c4.3,4.4,10,5.8,14.6,5.9
				C367.6,468.5,371.4,467.3,371.5,467.2z"/>
		</g>
		<g>
			<path fill="#FFFFFF" d="M155.5,446.8c2.5,0.9,5.5,2.3,8.5,4.2c-4.4,4.8-5.6,13-6.1,18.9c0,0.3,0,0.7-0.1,1.1
				c-0.3-2-0.4-4.2,0-6.5c1-6.3-0.4-10.7-2.4-13.9c-1.9-3.1-4.4-4.9-5.5-5.5C150,445.1,152.2,445.6,155.5,446.8z"/>
		</g>
		<g>
			<path fill="#FFFFFF" d="M137.3,438.3l0.1,0.1l0,0l0,0c1.2,1.3,2.9,4.1,4.3,7.5c1.3,3.5,2.2,7.6,1.5,11.7
				c-1.1,6.4,1.3,12,4.2,15.9s6.1,6.1,6.3,6.2c0,0-2.9-0.2-7.2-1.6s-9.9-4.2-14.7-9.2l0,0c-1.1-1.1-3.3-3.5-4.8-7.2
				c-1.5-3.6-2.2-8.3-0.4-13.6c2-6,1.2-10.7-0.2-14.1c-1.4-3.4-3.6-5.4-4.6-6.2c0,0,2.2,0.8,5.2,2.5
				C130,432.1,133.8,434.6,137.3,438.3z"/>
		</g>
		<g>
			<path fill="#FFFFFF" d="M110.3,419.1l0.1,0.1l0,0l0,0c1,1.5,2.3,4.5,3.1,8.1s1,7.8-0.2,11.8c-2.1,6.2-0.5,12.1,1.8,16.3
				c2.3,4.3,5.1,6.9,5.3,7.1c0,0-2.9-0.6-6.9-2.7c-4-2-9.1-5.6-13.2-11.3l0,0c-0.9-1.2-2.7-4-3.6-7.8s-0.9-8.5,1.7-13.5
				c2.8-5.7,2.8-10.4,1.9-13.9s-2.7-5.9-3.6-6.9c0,0,2.1,1.1,4.8,3.3C104,411.9,107.4,415,110.3,419.1z"/>
		</g>
		<g>
			<path fill="#FFFFFF" d="M86.4,396.1l0.1,0.1l0,0l0,0c0.8,1.6,1.6,4.8,1.8,8.4c0.2,3.7-0.1,7.9-2,11.6c-3,5.8-2.3,11.8-0.7,16.4
				c1.6,4.6,4,7.6,4.2,7.8c0,0-2.8-1-6.4-3.7c-3.7-2.6-8.2-6.9-11.3-13.1l0,0c-0.7-1.4-2.1-4.4-2.4-8.3s0.4-8.5,3.7-13.1
				c3.7-5.2,4.3-9.9,3.9-13.5s-1.8-6.3-2.5-7.3c0,0,1.9,1.4,4.3,4C81.2,388,84.1,391.6,86.4,396.1z"/>
		</g>
		<g>
			<path fill="#FFFFFF" d="M66.2,369.8v0.1l0,0l0,0c0.5,1.7,0.8,4.9,0.5,8.6s-1.3,7.8-3.7,11.2c-3.8,5.3-4.1,11.4-3.2,16.1
				c0.9,4.7,2.8,8.1,3,8.3c0,0-2.6-1.5-5.8-4.6s-7-8.1-9.2-14.7l0,0c-0.5-1.4-1.4-4.6-1.1-8.5c0.2-3.9,1.7-8.4,5.6-12.4
				c4.4-4.6,5.8-9.1,5.9-12.8c0.2-3.6-0.8-6.5-1.4-7.6c0,0,1.6,1.7,3.6,4.5C62.4,361,64.7,365,66.2,369.8z"/>
		</g>
		<g>
			<path fill="#FFFFFF" d="M50.3,340.7v0.1l0,0l0,0c0.3,1.8,0.1,5-0.8,8.6c-0.9,3.6-2.5,7.5-5.4,10.5c-4.6,4.7-5.7,10.6-5.6,15.5
				c0.2,4.8,1.6,8.5,1.7,8.7c0,0-2.3-1.8-5.1-5.4c-2.7-3.6-5.7-9-6.9-15.9l0,0c-0.3-1.5-0.7-4.8,0.1-8.6c0.8-3.8,2.9-8,7.4-11.4
				c5-3.8,7-8.1,7.8-11.7c0.7-3.6,0.1-6.5-0.2-7.7c0,0,1.4,1.9,2.9,5C47.8,331.5,49.5,335.8,50.3,340.7z"/>
		</g>
		<g>
			<path fill="#FFFFFF" d="M38.9,309.6v0.1l0,0l0,0c0,1.8-0.6,5-2.1,8.4c-1.4,3.4-3.6,7-6.9,9.6c-5.2,3.9-7.3,9.6-7.8,14.4
				c-0.6,4.8,0.3,8.6,0.3,8.8c0,0-2.1-2.2-4.2-6.1c-2.1-4-4.3-9.8-4.4-16.8l0,0c0-1.5,0-4.8,1.5-8.5c1.4-3.6,4.1-7.5,9-10.2
				c5.6-3,8.2-6.9,9.5-10.4c1.3-3.4,1.1-6.4,1-7.7c0,0,1,2.1,2.1,5.4C37.9,300.1,38.9,304.6,38.9,309.6z"/>
		</g>
		<g>
			<path fill="#FFFFFF" d="M32.4,277.1v0.1l0,0l0,0c-0.3,1.8-1.4,4.8-3.3,8c-1.9,3.1-4.6,6.4-8.3,8.4c-5.7,3.1-8.6,8.4-9.9,13.1
				s-1,8.6-1,8.8c0,0-1.7-2.4-3.2-6.7c-1.5-4.2-2.8-10.4-1.8-17.2l0,0c0.2-1.5,0.8-4.8,2.7-8.1c1.9-3.4,5.2-6.8,10.5-8.7
				c6-2.2,9.2-5.6,10.9-8.8c1.8-3.2,2.1-6.2,2.1-7.5c0,0,0.7,2.2,1.2,5.7C32.8,267.6,33.2,272.2,32.4,277.1z"/>
		</g>
		<g>
			<path fill="#FFFFFF" d="M30.9,244v0.1l0,0l0,0c-0.5,1.7-2.1,4.6-4.5,7.4c-2.4,2.8-5.5,5.6-9.4,7.1c-6.2,2.2-9.8,7-11.8,11.4
				s-2.3,8.3-2.3,8.5c0,0-1.3-2.7-2.1-7.1s-1.2-10.6,0.8-17.3l0,0c0.4-1.5,1.5-4.6,3.9-7.6s6.2-5.9,11.7-7c6.2-1.2,9.9-4.2,12.1-7.1
				c2.2-2.9,3-5.8,3.2-7.1c0,0,0.4,2.3,0.4,5.8S32.4,239.2,30.9,244z"/>
		</g>
		<g>
			<path fill="#FFFFFF" d="M34.3,211l-0.1,0.1l0,0l0,0c-0.8,1.6-2.8,4.2-5.5,6.6c-2.7,2.4-6.3,4.8-10.4,5.6
				c-6.4,1.2-10.7,5.5-13.3,9.6s-3.5,7.9-3.6,8.1c0,0-0.9-2.8-1.1-7.3s0.4-10.7,3.4-17l0,0c0.6-1.4,2.2-4.3,5-7
				c2.9-2.7,7-5,12.6-5.2c6.4-0.3,10.4-2.7,13.1-5.2c2.6-2.5,3.8-5.3,4.2-6.5c0,0,0,2.3-0.5,5.8C37.5,202,36.5,206.5,34.3,211z"/>
		</g>
		<g>
			<path fill="#FFFFFF" d="M42.6,179l-0.1,0.1l0,0l0,0c-1,1.5-3.4,3.7-6.5,5.7s-7,3.7-11.1,3.9c-6.5,0.3-11.5,3.8-14.6,7.4
				c-3.2,3.6-4.7,7.3-4.8,7.5c0,0-0.5-2.9,0.1-7.4c0.5-4.5,2-10.5,5.9-16.3l0,0c0.8-1.3,2.8-4,6-6.1c3.2-2.2,7.6-3.8,13.2-3.2
				c6.3,0.7,10.7-1,13.7-3.1s4.6-4.7,5.2-5.8c0,0-0.4,2.3-1.4,5.6C47.2,170.5,45.5,174.8,42.6,179z"/>
		</g>
		<g>
			<path fill="#FFFFFF" d="M55.8,148.6L55.8,148.6l-0.1,0.1l0,0c-1.2,1.3-3.9,3.2-7.3,4.7c-3.4,1.5-7.4,2.6-11.6,2.2
				c-6.5-0.7-11.9,2-15.6,5.1s-5.7,6.5-5.8,6.6c0,0,0-3,1.2-7.3c1.2-4.4,3.6-10.1,8.3-15.2l0,0c1-1.2,3.4-3.5,6.9-5.2
				s8.1-2.6,13.6-1.2c6.1,1.6,10.7,0.6,14-1.1c3.3-1.6,5.3-3.9,6-4.9c0,0-0.7,2.2-2.2,5.4C61.6,140.9,59.2,144.9,55.8,148.6z"/>
		</g>
		<g>
			<path fill="#FFFFFF" d="M73.3,120.5L73.3,120.5L73.3,120.5L73.3,120.5c-1.5,1.2-4.4,2.6-8,3.6s-7.8,1.5-11.8,0.4
				c-6.3-1.7-12.1,0.2-16.2,2.7s-6.6,5.5-6.8,5.7c0,0,0.4-2.9,2.3-7c1.8-4.1,5.1-9.4,10.5-13.8l0,0c1.2-1,3.8-2.9,7.6-4.1
				c3.7-1.1,8.4-1.4,13.6,0.9c5.8,2.5,10.5,2.2,14,1.1s5.8-3.1,6.6-4c0,0-1,2.1-3,5C80.2,113.8,77.3,117.4,73.3,120.5z"/>
		</g>
		<g>
			<path fill="#FFFFFF" d="M95,95.3L95,95.3L95,95.3L95,95.3c-1.7,1-4.8,2-8.4,2.4c-3.7,0.4-7.9,0.3-11.7-1.4
				c-6-2.6-11.9-1.6-16.4,0.2c-4.5,1.9-7.4,4.5-7.5,4.6c0,0,0.9-2.8,3.3-6.6c2.4-3.8,6.4-8.5,12.5-12l0,0c1.3-0.8,4.2-2.3,8.1-2.9
				c3.8-0.6,8.6-0.1,13.3,2.9c5.4,3.4,10.1,3.7,13.7,3.2c3.6-0.6,6.2-2.2,7.2-2.9c0,0-1.3,1.9-3.7,4.4C102.8,89.8,99.3,92.9,95,95.3
				z"/>
		</g>
		<g>
			<path fill="#FFFFFF" d="M120.1,73.7L120.1,73.7L120.1,73.7L120.1,73.7c-1.8,0.7-5,1.3-8.7,1.1c-3.7-0.1-7.8-0.9-11.4-3.1
				c-5.5-3.5-11.6-3.4-16.3-2.2c-4.7,1.1-8,3.3-8.2,3.4c0,0,1.3-2.7,4.3-6.1s7.7-7.5,14.1-10l0,0c1.4-0.6,4.6-1.7,8.4-1.6
				c3.9,0,8.5,1.2,12.7,4.9c4.8,4.1,9.4,5.2,13.1,5.2c3.7,0,6.4-1.2,7.5-1.8c0,0-1.6,1.7-4.3,3.8S124.8,71.9,120.1,73.7z"/>
		</g>
		<g>
			<path fill="#FFFFFF" d="M148.2,56.2h-0.1l0,0l0,0c-1.7,0.4-5,0.4-8.6-0.3s-7.6-2.1-10.8-4.8c-4.9-4.3-10.9-5.1-15.7-4.7
				c-4.8,0.4-8.4,2.1-8.6,2.2c0,0,1.7-2.4,5.1-5.3c3.4-2.9,8.7-6.3,15.5-7.8l0,0c1.5-0.4,4.7-1,8.6-0.3c3.8,0.6,8.2,2.5,11.8,6.7
				c4.1,4.8,8.5,6.6,12.1,7.1s6.5-0.2,7.7-0.7c0,0-1.8,1.5-4.9,3.1C157.3,53.1,153.1,55.1,148.2,56.2z"/>
		</g>
		<g>
			<path fill="#FFFFFF" d="M178.6,43h-0.1l0,0l0,0c-1.8,0.1-5-0.4-8.5-1.6c-3.5-1.2-7.2-3.2-9.9-6.4c-4.2-5-10-6.7-14.9-7
				c-4.8-0.3-8.6,0.8-8.8,0.8c0,0,2-2.2,5.9-4.5c3.8-2.4,9.5-4.9,16.5-5.4l0,0c1.5-0.1,4.8-0.2,8.5,1s7.7,3.7,10.7,8.4
				c3.4,5.4,7.4,7.8,10.9,8.9s6.5,0.8,7.7,0.5c0,0-2,1.1-5.3,2.4C188.1,41.4,183.6,42.7,178.6,43z"/>
		</g>
		<g>
			<path fill="#FFFFFF" d="M210.7,34.7h-0.1l0,0l0,0c-1.8-0.2-4.9-1.1-8.2-2.8c-3.2-1.7-6.7-4.3-8.8-7.8c-3.4-5.6-8.9-8.1-13.6-9.2
				c-4.7-1-8.6-0.5-8.8-0.5c0,0,2.3-1.8,6.5-3.6c4.2-1.7,10.2-3.4,17.1-2.8l0,0c1.5,0.1,4.8,0.5,8.3,2.2s7.1,4.8,9.3,10
				c2.5,5.8,6.1,8.8,9.4,10.4c3.3,1.6,6.3,1.7,7.6,1.7c0,0-2.2,0.8-5.6,1.6C220.3,34.5,215.7,35.1,210.7,34.7z"/>
		</g>
		<g>
			<path fill="#FFFFFF" d="M243.6,31.3h-0.1l0,0l0,0c-1.7-0.4-4.7-1.8-7.6-4c-3-2.2-5.9-5.2-7.6-9c-2.5-6-7.6-9.4-12.1-11.1
				s-8.4-1.8-8.7-1.8c0,0,2.6-1.5,7-2.5c4.4-1.1,10.6-1.8,17.3-0.2l0,0c1.5,0.3,4.7,1.2,7.9,3.5c3.2,2.2,6.3,5.8,7.7,11.3
				c1.6,6.1,4.7,9.6,7.8,11.7c3,2.1,6,2.7,7.3,2.8c0,0-2.3,0.5-5.8,0.7C253.2,32.6,248.5,32.5,243.6,31.3z"/>
		</g>
		<g>
			<path fill="#FFFFFF" d="M276.8,32.8l-0.1-0.1l0,0l0,0c-1.6-0.7-4.3-2.5-6.9-5.1s-5.1-6-6.2-10.1c-1.6-6.3-6.1-10.4-10.3-12.8
				s-8-3.1-8.3-3.1c0,0,2.8-1,7.2-1.5c4.5-0.4,10.7-0.2,17.2,2.4l0,0c1.4,0.5,4.5,1.9,7.3,4.6s5.3,6.7,5.9,12.3
				c0.7,6.3,3.3,10.3,5.9,12.7c2.7,2.5,5.5,3.5,6.7,3.8c0,0-2.3,0.2-5.8-0.2C286,35.5,281.4,34.7,276.8,32.8z"/>
		</g>
		<g>
			<path fill="#FFFFFF" d="M309.2,39.3l-0.1-0.1l0,0l0,0c-1.5-0.9-3.9-3.1-6.1-6.1s-4.1-6.7-4.5-10.9C297.8,15.7,294,11,290.2,8
				s-7.5-4.3-7.7-4.3c0,0,2.9-0.6,7.4-0.4c4.5,0.3,10.6,1.4,16.6,5l0,0c1.3,0.7,4.1,2.6,6.5,5.6c2.4,3.1,4.3,7.4,4,13
				c-0.3,6.3,1.7,10.6,3.9,13.5c2.3,2.9,4.9,4.3,6.1,4.8c0,0-2.3-0.2-5.7-1.1C317.9,43.4,313.5,41.9,309.2,39.3z"/>
		</g>
		<g>
			<path fill="#FFFFFF" d="M340.3,50.7L340.3,50.7l-0.1-0.1l0,0c-1.3-1.2-3.4-3.7-5.1-7s-3.1-7.3-2.9-11.4c0.4-6.5-2.7-11.8-6-15.3
				s-6.8-5.3-7-5.4c0,0,3-0.2,7.4,0.8c4.4,0.9,10.3,3,15.7,7.4l0,0c1.2,0.9,3.7,3.2,5.5,6.6c1.9,3.4,3.1,8,2,13.5
				c-1.3,6.2,0,10.8,1.8,13.9c1.8,3.2,4.2,5,5.3,5.7c0,0-2.3-0.6-5.5-1.9C348.3,56,344.2,53.9,340.3,50.7z"/>
		</g>
		<g>
			<path fill="#FFFFFF" d="M369.4,66.6L369.4,66.6l-0.1-0.1l0,0c-1.2-1.3-2.8-4.2-4-7.7s-1.9-7.7-1.1-11.7c1.4-6.4-0.9-12-3.6-16
				s-5.9-6.3-6.1-6.4c0,0,3,0.3,7.2,1.9s9.7,4.6,14.4,9.7l0,0c1,1.1,3.2,3.7,4.5,7.3s1.9,8.3-0.1,13.6c-2.2,6-1.6,10.6-0.3,14.1
				c1.3,3.4,3.4,5.6,4.4,6.4c0,0-2.2-0.9-5.1-2.7C376.5,73.1,372.7,70.4,369.4,66.6z"/>
		</g>
		<g>
			<path fill="#FFFFFF" d="M395.7,86.8l-0.1-0.1l0,0l0,0c-0.9-1.5-2.1-4.5-2.8-8.2c-0.6-3.6-0.8-7.9,0.7-11.8
				c2.3-6.1,0.9-12-1.2-16.4s-4.9-7.1-5-7.3c0,0,2.9,0.7,6.8,2.9s8.9,6,12.7,11.8l0,0c0.9,1.3,2.6,4.1,3.3,7.9
				c0.8,3.8,0.6,8.5-2.1,13.5c-3.1,5.6-3.2,10.3-2.4,13.8c0.8,3.6,2.5,6,3.3,7c0,0-2-1.2-4.7-3.5C401.8,94.2,398.4,91,395.7,86.8z"
				/>
		</g>
		<g>
			<path fill="#FFFFFF" d="M418.7,110.6l-0.1-0.1l0,0l0,0c-0.7-1.6-1.4-4.8-1.5-8.5s0.4-7.9,2.4-11.5c3.2-5.7,2.7-11.8,1.3-16.4
				c-1.4-4.6-3.7-7.8-3.9-8c0,0,2.8,1.1,6.3,3.9s7.9,7.2,10.8,13.5l0,0c0.7,1.4,1.9,4.4,2.1,8.3s-0.7,8.5-4.1,13
				c-3.9,5-4.7,9.7-4.4,13.3c0.2,3.7,1.6,6.4,2.3,7.4c0,0-1.8-1.5-4.1-4.1C423.6,118.9,420.8,115.2,418.7,110.6z"/>
		</g>
		<g>
			<path fill="#FFFFFF" d="M437.9,137.7v-0.1l0,0l0,0c-0.5-1.7-0.7-5-0.2-8.6c0.5-3.6,1.6-7.7,4.1-11c4-5.2,4.5-11.2,3.8-16
				s-2.5-8.3-2.6-8.4c0,0,2.5,1.5,5.6,4.8s6.7,8.3,8.7,15l0,0c0.4,1.4,1.2,4.7,0.8,8.5c-0.4,3.9-2,8.3-6,12.2
				c-4.6,4.4-6.1,8.9-6.4,12.5s0.6,6.5,1.1,7.7c0,0-1.6-1.8-3.4-4.7C441.4,146.6,439.2,142.5,437.9,137.7z"/>
		</g>
		<g>
			<path fill="#FFFFFF" d="M452.7,167.3v-0.1l0,0l0,0c-0.2-1.8,0.1-5,1.1-8.6c1-3.5,2.8-7.4,5.8-10.3c4.7-4.5,6.1-10.4,6.1-15.2
				s-1.3-8.5-1.3-8.7c0,0,2.3,1.9,4.8,5.6c2.6,3.7,5.4,9.3,6.3,16.2l0,0c0.2,1.5,0.5,4.8-0.5,8.6s-3.2,7.9-7.8,11.2
				c-5.2,3.7-7.3,7.8-8.2,11.4c-0.9,3.6-0.4,6.5-0.1,7.8c0,0-1.3-2-2.7-5.1C454.9,176.7,453.3,172.3,452.7,167.3z"/>
		</g>
		<g>
			<path fill="#FFFFFF" d="M462.9,198.8v-0.1l0,0l0,0c0.1-1.8,0.8-4.9,2.4-8.3c1.5-3.3,3.8-6.9,7.3-9.3c5.4-3.7,7.6-9.4,8.4-14.1
				c0.8-4.8,0-8.6,0-8.9c0,0,2,2.2,3.9,6.3c2,4,3.9,10,3.8,16.9l0,0c0,1.5-0.2,4.8-1.8,8.4c-1.5,3.6-4.4,7.3-9.4,9.8
				c-5.7,2.8-8.5,6.6-9.9,10s-1.4,6.4-1.2,7.7c0,0-1-2.1-1.9-5.5C463.6,208.4,462.7,203.8,462.9,198.8z"/>
		</g>
		<g>
			<path fill="#FFFFFF" d="M467.6,227.7v-0.1l0,0l0,0c0.4-1.8,1.6-4.8,3.6-7.9c2-3.1,4.9-6.2,8.6-8.1c5.9-2.9,9-8.1,10.4-12.7
				c1.5-4.6,1.4-8.5,1.4-8.7c0,0,1.6,2.5,2.9,6.8s2.4,10.4,1.2,17.3l0,0c-0.2,1.5-0.9,4.8-3,8c-2.1,3.3-5.5,6.6-10.8,8.3
				c-6,2-9.4,5.3-11.2,8.4c-1.9,3.1-2.3,6.1-2.4,7.4c0,0-0.6-2.3-1-5.7C466.9,237.3,466.7,232.7,467.6,227.7z"/>
		</g>
	</g>
</g>
</svg>
